<?xml version="1.0" standalone="no"?>
<!DOCTYPE svg PUBLIC "-//W3C//DTD SVG 20010904//EN"
 "http://www.w3.org/TR/2001/REC-SVG-20010904/DTD/svg10.dtd">
<svg version="1.0" xmlns="http://www.w3.org/2000/svg"
 width="900.000000pt" height="900.000000pt" viewBox="0 0 900.000000 900.000000"
 preserveAspectRatio="xMidYMid meet">
<metadata>
Created by potrace 1.14, written by Peter Selinger 2001-2017
</metadata>
<g transform="translate(0.000000,900.000000) scale(0.100000,-0.100000)"
fill="#000000" stroke="none">
<path d="M3420 6569 c-328 -44 -561 -120 -794 -260 -301 -180 -583 -486 -746
-809 -227 -450 -279 -1118 -128 -1649 92 -325 266 -620 505 -858 174 -172 311
-270 513 -367 301 -144 599 -204 961 -193 267 7 462 43 677 123 l95 36 66 -26
c534 -207 1234 -175 1707 80 195 105 317 199 500 386 164 166 259 302 363 518
97 202 152 400 186 671 44 360 -8 810 -131 1114 -103 257 -229 448 -423 649
-244 250 -465 394 -752 490 -450 151 -1030 138 -1455 -31 l-62 -24 -62 25
c-68 28 -244 78 -330 95 -196 39 -520 52 -690 30z m2221 -703 c389 -99 715
-399 865 -793 121 -322 122 -793 1 -1138 -110 -315 -379 -605 -680 -731 -179
-76 -309 -97 -564 -95 l-72 1 69 91 c204 267 330 564 386 914 22 136 30 500
14 652 -42 411 -161 721 -397 1035 l-73 97 72 3 c123 5 278 -10 379 -36z
m-1895 -48 c-329 -429 -470 -1010 -395 -1633 44 -366 184 -719 395 -992 l64
-83 -143 0 c-217 0 -381 38 -560 129 -129 66 -216 131 -326 246 -166 174 -263
348 -321 575 -66 260 -68 600 -5 870 90 379 384 730 735 877 169 71 270 90
472 92 l148 1 -64 -82z m774 -258 c10 -5 47 -45 83 -87 176 -212 268 -420 312
-707 20 -125 20 -399 1 -521 -47 -305 -162 -555 -339 -740 l-77 -80 -66 70
c-206 220 -327 513 -356 866 -20 240 6 465 79 679 42 125 76 195 148 304 47
71 178 226 191 226 3 0 14 -4 24 -10z"/>
</g>
</svg>
